<?xml version="1.0" encoding="UTF-8" standalone="no"?>
<!DOCTYPE svg PUBLIC "-//W3C//DTD SVG 1.1//EN"
 "http://www.w3.org/Graphics/SVG/1.1/DTD/svg11.dtd">
<!-- Generated by graphviz version 2.43.0 (0)
 -->
<!-- Pages: 1 -->
<svg width="679pt" height="782pt"
 viewBox="0.00 0.00 678.50 782.00" xmlns="http://www.w3.org/2000/svg" xmlns:xlink="http://www.w3.org/1999/xlink">
<g id="graph0" class="graph" transform="scale(1 1) rotate(0) translate(4 778)">
<polygon fill="white" stroke="transparent" points="-4,4 -4,-778 674.5,-778 674.5,4 -4,4"/>
<!-- start -->
<g id="node1" class="node">
<title>start</title>
<g id="a_node1"><a xlink:title="PROMPT: &lt;p&gt;Hi, may I speak to {{person.first_name}}?&lt;/p&gt;&#10;&lt;p&gt;My name is {{caller.name}}, and I am a [your job title] in [your department]. I&#39;m calling to talk to you about what&#39;s going on at {{person.employer}}&#10;and about what our union is currently doing to organize and build power. What have you heard so far about what our union is doing?&lt;/p&gt;">
<polygon fill="#e5e5e5" stroke="black" points="352.5,-774 298.5,-774 298.5,-738 352.5,-738 352.5,-774"/>
<text text-anchor="middle" x="325.5" y="-752.3" font-family="Helvetica,sans-Serif" font-size="14.00">start</text>
</a>
</g>
</g>
<!-- send a text -->
<g id="node3" class="node">
<title>send a text</title>
<g id="a_node3"><a xlink:title="PROMPT: &lt;p&gt;If you get voicemail or just no answer, &lt;strong&gt;DO NOT LEAVE VOICEMAIL&lt;/strong&gt;.&lt;/p&gt;&#10;&lt;p&gt;If the person you&#39;re calling has a cell, send them the following text:&lt;/p&gt;&#10;&lt;blockquote&gt;Hi, {{person.first_name}}. This is {{caller.name}}. I am a [your title] in [your department]. I&#39;m making calls with other members at our&#10;college to find out how people are doing and to let you know about a series of actions the union is taking over the summer to make sure that all of&#10;our members keep their jobs and stay safe during the pandemic. Do you have time to talk?&lt;/blockquote&gt;">
<polygon fill="#e5e5e5" stroke="black" points="83,-687 0,-687 0,-651 83,-651 83,-687"/>
<text text-anchor="middle" x="41.5" y="-665.3" font-family="Helvetica,sans-Serif" font-size="14.00">send a text</text>
</a>
</g>
</g>
<!-- start&#45;&gt;send a text -->
<g id="edge8" class="edge">
<title>start&#45;&gt;send a text</title>
<g id="a_edge8"><a xlink:title="OUTCOME=No answer or voicemail">
<path fill="none" stroke="black" stroke-width="2" d="M298.23,-754.06C240.93,-751.63 110.32,-743.59 73.5,-720 64.61,-714.31 57.71,-705.16 52.64,-696.25"/>
<polygon fill="black" stroke="black" stroke-width="2" points="55.67,-694.49 48,-687.19 49.44,-697.68 55.67,-694.49"/>
</a>
</g>
<g id="a_edge8&#45;label"><a xlink:title="OUTCOME=No answer or voicemail">
<text text-anchor="middle" x="144.5" y="-708.8" font-family="Helvetica,sans-Serif" font-size="14.00">No answer or voicemail</text>
</a>
</g>
</g>
<!-- mark phone bad -->
<g id="node5" class="node">
<title>mark phone bad</title>
<g id="a_node5"><a xlink:title="PROMPT: &lt;p&gt;Please locate the number you dialed in the upper right corner of this panel and click the switch next to it to change the setting from&#10;&lt;strong&gt;OK&lt;/strong&gt; to &lt;strong&gt;BAD&lt;/strong&gt;, indicating that the number should no longer be used.&lt;/p&gt;&#10;&lt;p&gt;If the person has a second number, please click the &lt;strong&gt;Previous Question&lt;/strong&gt; button and call that number before&#10;marking the call complete.&lt;/p&gt;&#10;&lt;p&gt;Otherwise, please click the &lt;strong&gt;Call complete&lt;/strong&gt; button.&lt;/p&gt;">
<polygon fill="#e5e5e5" stroke="black" points="261,-687 146,-687 146,-651 261,-651 261,-687"/>
<text text-anchor="middle" x="203.5" y="-665.3" font-family="Helvetica,sans-Serif" font-size="14.00">mark phone bad</text>
</a>
</g>
</g>
<!-- start&#45;&gt;mark phone bad -->
<g id="edge7" class="edge">
<title>start&#45;&gt;mark phone bad</title>
<g id="a_edge7"><a xlink:title="OUTCOME=Wrong number">
<path fill="none" stroke="black" stroke-width="2" d="M298.2,-750.13C277.91,-745.35 250.54,-736.31 231.5,-720 224.14,-713.7 218.33,-704.96 213.96,-696.55"/>
<polygon fill="black" stroke="black" stroke-width="2" points="217.05,-694.89 209.62,-687.33 210.71,-697.87 217.05,-694.89"/>
</a>
</g>
<g id="a_edge7&#45;label"><a xlink:title="OUTCOME=Wrong number">
<text text-anchor="middle" x="277" y="-708.8" font-family="Helvetica,sans-Serif" font-size="14.00">Wrong number</text>
</a>
</g>
</g>
<!-- call back later -->
<g id="node8" class="node">
<title>call back later</title>
<g id="a_node8"><a xlink:title="PROMPT: &lt;p&gt;We&#39;ll be happy to call another time. What would be best for you?&lt;/p&gt;">
<polygon fill="#e5e5e5" stroke="black" points="378,-687 279,-687 279,-651 378,-651 378,-687"/>
<text text-anchor="middle" x="328.5" y="-665.3" font-family="Helvetica,sans-Serif" font-size="14.00">call back later</text>
</a>
</g>
</g>
<!-- start&#45;&gt;call back later -->
<g id="edge6" class="edge">
<title>start&#45;&gt;call back later</title>
<g id="a_edge6"><a xlink:title="OUTCOME=Call back later">
<path fill="none" stroke="black" stroke-width="2" d="M325.69,-737.87C325.83,-728.21 326.08,-715.93 326.5,-705 326.6,-702.45 326.72,-699.79 326.85,-697.13"/>
<polygon fill="black" stroke="black" stroke-width="2" points="330.35,-697.26 327.4,-687.08 323.36,-696.88 330.35,-697.26"/>
</a>
</g>
<g id="a_edge6&#45;label"><a xlink:title="OUTCOME=Call back later">
<text text-anchor="middle" x="369.5" y="-708.8" font-family="Helvetica,sans-Serif" font-size="14.00">Call back later</text>
</a>
</g>
</g>
<!-- date left employer -->
<g id="node11" class="node">
<title>date left employer</title>
<g id="a_node11"><a xlink:title="PROMPT: &lt;p&gt;Do you know the date you left work?&lt;/p&gt;">
<polygon fill="#e5e5e5" stroke="black" points="669,-633 544,-633 544,-597 669,-597 669,-633"/>
<text text-anchor="middle" x="606.5" y="-611.3" font-family="Helvetica,sans-Serif" font-size="14.00">date left employer</text>
</a>
</g>
</g>
<!-- start&#45;&gt;date left employer -->
<g id="edge5" class="edge">
<title>start&#45;&gt;date left employer</title>
<g id="a_edge5"><a xlink:title="OUTCOME=Left Employer">
<path fill="none" stroke="black" stroke-width="2" d="M352.53,-752.73C384.5,-749.21 438.64,-740.53 480.5,-720 521.17,-700.05 560.14,-664.51 583.7,-640.6"/>
<polygon fill="black" stroke="black" stroke-width="2" points="586.34,-642.9 590.79,-633.28 581.31,-638.03 586.34,-642.9"/>
</a>
</g>
<g id="a_edge5&#45;label"><a xlink:title="OUTCOME=Left Employer">
<text text-anchor="middle" x="547.5" y="-708.8" font-family="Helvetica,sans-Serif" font-size="14.00">Left employer</text>
</a>
</g>
</g>
<!-- branch on status -->
<g id="node17" class="node">
<title>branch on status</title>
<polygon fill="#e5e5e5" stroke="black" points="427.5,-687 400.5,-669 427.5,-651 454.5,-669 427.5,-687"/>
<text text-anchor="middle" x="427.5" y="-665.3" font-family="Helvetica,sans-Serif" font-size="14.00">?</text>
</g>
<!-- start&#45;&gt;branch on status -->
<g id="edge1" class="edge">
<title>start&#45;&gt;branch on status</title>
<g id="a_edge1"><a xlink:title="OUTCOME=Reached">
<path fill="none" stroke="black" stroke-width="2" d="M352.62,-750.52C371.85,-745.98 396.91,-737.07 412.5,-720 418.49,-713.43 422.1,-704.56 424.26,-696.1"/>
<polygon fill="black" stroke="black" stroke-width="2" points="427.72,-696.68 426.25,-686.19 420.85,-695.3 427.72,-696.68"/>
</a>
</g>
<g id="a_edge1&#45;label"><a xlink:title="OUTCOME=Reached">
<text text-anchor="middle" x="449" y="-708.8" font-family="Helvetica,sans-Serif" font-size="14.00">Reached</text>
</a>
</g>
</g>
<!-- goodbye -->
<g id="node2" class="node">
<title>goodbye</title>
<g id="a_node2"><a xlink:title="PROMPT: &lt;p&gt;Thank you for your time. It was nice talking to you.&lt;/p&gt;">
<polygon fill="#e5e5e5" stroke="black" points="512.5,-36 444.5,-36 444.5,0 512.5,0 512.5,-36"/>
<text text-anchor="middle" x="478.5" y="-14.3" font-family="Helvetica,sans-Serif" font-size="14.00">goodbye</text>
</a>
</g>
</g>
<!-- petition info -->
<g id="node4" class="node">
<title>petition info</title>
<g id="a_node4"><a xlink:title="PROMPT: Later today, I&#39;ll send you a link to the petition. Would you prefer an email or a text?">
<polygon fill="#e5e5e5" stroke="black" points="330.5,-231 244.5,-231 244.5,-195 330.5,-195 330.5,-231"/>
<text text-anchor="middle" x="287.5" y="-209.3" font-family="Helvetica,sans-Serif" font-size="14.00">petition info</text>
</a>
</g>
</g>
<!-- ask to volunteer -->
<g id="node9" class="node">
<title>ask to volunteer</title>
<g id="a_node9"><a xlink:title="PROMPT: Can you volunteer to help us reach out to more of our members by making calls from home?">
<polygon fill="#e5e5e5" stroke="black" points="343.5,-123 231.5,-123 231.5,-87 343.5,-87 343.5,-123"/>
<text text-anchor="middle" x="287.5" y="-101.3" font-family="Helvetica,sans-Serif" font-size="14.00">ask to volunteer</text>
</a>
</g>
</g>
<!-- petition info&#45;&gt;ask to volunteer -->
<g id="edge22" class="edge">
<title>petition info&#45;&gt;ask to volunteer</title>
<path fill="none" stroke="black" d="M247.53,-194.86C240.7,-190.09 234.53,-184.2 230.5,-177 222.69,-163.04 222.69,-154.96 230.5,-141 232.89,-136.73 236.04,-132.91 239.63,-129.52"/>
<polygon fill="black" stroke="black" points="241.95,-132.15 247.53,-123.14 237.55,-126.7 241.95,-132.15"/>
<text text-anchor="middle" x="248" y="-155.3" font-family="Helvetica,sans-Serif" font-size="14.00">Email</text>
</g>
<!-- petition info&#45;&gt;ask to volunteer -->
<g id="edge23" class="edge">
<title>petition info&#45;&gt;ask to volunteer</title>
<path fill="none" stroke="black" d="M285.16,-194.94C284.48,-189.25 283.83,-182.86 283.5,-177 282.59,-161.03 282.59,-156.97 283.5,-141 283.65,-138.44 283.85,-135.77 284.09,-133.11"/>
<polygon fill="black" stroke="black" points="287.59,-133.37 285.16,-123.06 280.62,-132.63 287.59,-133.37"/>
<text text-anchor="middle" x="326" y="-155.3" font-family="Helvetica,sans-Serif" font-size="14.00">Text message</text>
</g>
<!-- petition pitch -->
<g id="node6" class="node">
<title>petition pitch</title>
<g id="a_node6"><a xlink:title="PROMPT: &lt;p&gt;To win these battles, the union needs your support. Would you be willing to sign a petition to the&#10;governor and the legislature urging them to approve and sign the job&#45;protecting legislation I mentioned?&lt;/p&gt;">
<polygon fill="#e5e5e5" stroke="black" points="457.5,-318 365.5,-318 365.5,-282 457.5,-282 457.5,-318"/>
<text text-anchor="middle" x="411.5" y="-296.3" font-family="Helvetica,sans-Serif" font-size="14.00">petition pitch</text>
</a>
</g>
</g>
<!-- petition pitch&#45;&gt;goodbye -->
<g id="edge21" class="edge">
<title>petition pitch&#45;&gt;goodbye</title>
<path fill="none" stroke="black" d="M457.78,-287.33C469.86,-282.11 481.67,-274.64 489.5,-264 536.35,-200.35 521.84,-164.53 506.5,-87 503.67,-72.67 497.77,-57.57 492.12,-45.24"/>
<polygon fill="black" stroke="black" points="495.18,-43.53 487.7,-36.02 488.87,-46.55 495.18,-43.53"/>
<text text-anchor="middle" x="548" y="-155.3" font-family="Helvetica,sans-Serif" font-size="14.00">Continue</text>
</g>
<!-- petition pitch&#45;&gt;petition info -->
<g id="edge19" class="edge">
<title>petition pitch&#45;&gt;petition info</title>
<path fill="none" stroke="black" d="M379.6,-281.89C370.06,-276.46 359.7,-270.24 350.5,-264 338.53,-255.88 325.93,-246.15 315.17,-237.43"/>
<polygon fill="black" stroke="black" points="317.29,-234.65 307.34,-231.01 312.85,-240.06 317.29,-234.65"/>
<text text-anchor="middle" x="376.5" y="-252.8" font-family="Helvetica,sans-Serif" font-size="14.00">Will sign</text>
</g>
<!-- petition feedback -->
<g id="node10" class="node">
<title>petition feedback</title>
<g id="a_node10"><a xlink:title="PROMPT: Can you tell me what&#39;s keeping you from signing the petition?">
<polygon fill="#e5e5e5" stroke="black" points="497,-177 378,-177 378,-141 497,-141 497,-177"/>
<text text-anchor="middle" x="437.5" y="-155.3" font-family="Helvetica,sans-Serif" font-size="14.00">petition feedback</text>
</a>
</g>
</g>
<!-- petition pitch&#45;&gt;petition feedback -->
<g id="edge20" class="edge">
<title>petition pitch&#45;&gt;petition feedback</title>
<path fill="none" stroke="black" d="M414.69,-281.96C419.11,-258.3 427.16,-215.26 432.42,-187.15"/>
<polygon fill="black" stroke="black" points="435.89,-187.66 434.29,-177.18 429.01,-186.37 435.89,-187.66"/>
<text text-anchor="middle" x="453.5" y="-252.8" font-family="Helvetica,sans-Serif" font-size="14.00">Won&#39;t sign</text>
</g>
<!-- will volunteer -->
<g id="node7" class="node">
<title>will volunteer</title>
<g id="a_node7"><a xlink:title="PROMPT: &lt;p&gt;Great! Someone from the union will be in touch with you soon about setting you up to call other members.&lt;/p&gt;&#10;&lt;p&gt;Thank you for being willing to help support the campaign! Goodbye!&lt;/p&gt;">
<polygon fill="#e5e5e5" stroke="black" points="335,-36 240,-36 240,0 335,0 335,-36"/>
<text text-anchor="middle" x="287.5" y="-14.3" font-family="Helvetica,sans-Serif" font-size="14.00">will volunteer</text>
</a>
</g>
</g>
<!-- ask to volunteer&#45;&gt;goodbye -->
<g id="edge26" class="edge">
<title>ask to volunteer&#45;&gt;goodbye</title>
<path fill="none" stroke="black" d="M326.15,-86.8C357.7,-72.76 402.26,-52.93 435.05,-38.34"/>
<polygon fill="black" stroke="black" points="436.67,-41.44 444.39,-34.18 433.83,-35.05 436.67,-41.44"/>
<text text-anchor="middle" x="404" y="-57.8" font-family="Helvetica,sans-Serif" font-size="14.00">No</text>
</g>
<!-- ask to volunteer&#45;&gt;will volunteer -->
<g id="edge25" class="edge">
<title>ask to volunteer&#45;&gt;will volunteer</title>
<path fill="none" stroke="black" d="M287.5,-86.8C287.5,-75.16 287.5,-59.55 287.5,-46.24"/>
<polygon fill="black" stroke="black" points="291,-46.18 287.5,-36.18 284,-46.18 291,-46.18"/>
<text text-anchor="middle" x="299" y="-57.8" font-family="Helvetica,sans-Serif" font-size="14.00">Yes</text>
</g>
<!-- petition feedback&#45;&gt;goodbye -->
<g id="edge24" class="edge">
<title>petition feedback&#45;&gt;goodbye</title>
<path fill="none" stroke="black" d="M439.98,-140.86C442.29,-126.35 446.18,-105.08 451.5,-87 455.63,-72.96 461.51,-57.79 466.73,-45.34"/>
<polygon fill="black" stroke="black" points="470.01,-46.59 470.73,-36.02 463.57,-43.83 470.01,-46.59"/>
<text text-anchor="middle" x="479" y="-101.3" font-family="Helvetica,sans-Serif" font-size="14.00">Continue</text>
</g>
<!-- date left employer&#45;&gt;goodbye -->
<g id="edge9" class="edge">
<title>date left employer&#45;&gt;goodbye</title>
<path fill="none" stroke="black" d="M609.1,-596.79C611.76,-577.71 615.5,-545.98 615.5,-518.5 615.5,-518.5 615.5,-518.5 615.5,-104 615.5,-59.49 562.64,-37.48 522.58,-27.19"/>
<polygon fill="black" stroke="black" points="523.26,-23.75 512.72,-24.82 521.62,-30.56 523.26,-23.75"/>
<text text-anchor="middle" x="643" y="-339.8" font-family="Helvetica,sans-Serif" font-size="14.00">Continue</text>
</g>
<!-- message to retirees -->
<g id="node12" class="node">
<title>message to retirees</title>
<g id="a_node12"><a xlink:title="PROMPT: &lt;p&gt;Thanks for taking a minute to talk. We&#39;re getting in touch with our retirees to make sure that you&#39;re aware that, despite the pandemic,&#10;the union is continuing to work to protect your pension and benefits.&lt;/p&gt;&#10;&lt;p&gt;We&#39;re also working hard to protect the jobs of current members. Have you heard about this campaign?&lt;/p&gt;">
<polygon fill="#e5e5e5" stroke="black" points="587.5,-492 451.5,-492 451.5,-456 587.5,-456 587.5,-492"/>
<text text-anchor="middle" x="519.5" y="-470.3" font-family="Helvetica,sans-Serif" font-size="14.00">message to retirees</text>
</a>
</g>
</g>
<!-- message to retirees&#45;&gt;petition pitch -->
<g id="edge16" class="edge">
<title>message to retirees&#45;&gt;petition pitch</title>
<path fill="none" stroke="black" d="M518.21,-455.59C515.12,-426.63 504.77,-368.51 470.5,-336 465.79,-331.54 460.42,-327.39 454.87,-323.62"/>
<polygon fill="black" stroke="black" points="456.41,-320.45 446.09,-318.03 452.65,-326.35 456.41,-320.45"/>
<text text-anchor="middle" x="519" y="-383.3" font-family="Helvetica,sans-Serif" font-size="14.00">Yes</text>
</g>
<!-- retention work details -->
<g id="node13" class="node">
<title>retention work details</title>
<g id="a_node13"><a xlink:title="PROMPT: &lt;p&gt;OK. Let me fill you in quickly about what&#39;s going on. The union has been working on hard on multiple fronts to make sure&#10;that members will still have their jobs when the pandemic is finally over. Here&#39;s some of what&#39;s going on:&lt;/p&gt;&#10;&lt;ul&gt;&#10;&lt;li&gt;Union negotiators are working with management to obtain commitments to preserve all full&#45;time positions and to rehire contingent&#10;workers as soon as it&#39;s safe to return to work.&lt;/li&gt;&#10;&lt;li&gt;Union staff are lobbying the governor and our state reps for legislation requiring employers to hold full&#45;time jobs&#10;and rehire contingent workers.&lt;/li&gt;&#10;&lt;li&gt;Union legal counsel is carefully reviewing all of our contracts to make sure we&#39;re using all available leverage&#10;to protect existing jobs.&lt;/li&gt;&lt;/ul&gt;">
<polygon fill="#e5e5e5" stroke="black" points="483.5,-405 339.5,-405 339.5,-369 483.5,-369 483.5,-405"/>
<text text-anchor="middle" x="411.5" y="-383.3" font-family="Helvetica,sans-Serif" font-size="14.00">retention work details</text>
</a>
</g>
</g>
<!-- message to retirees&#45;&gt;retention work details -->
<g id="edge17" class="edge">
<title>message to retirees&#45;&gt;retention work details</title>
<path fill="none" stroke="black" d="M497.64,-455.8C481.54,-443.13 459.44,-425.73 441.66,-411.74"/>
<polygon fill="black" stroke="black" points="443.35,-408.61 433.32,-405.18 439.02,-414.11 443.35,-408.61"/>
<text text-anchor="middle" x="482" y="-426.8" font-family="Helvetica,sans-Serif" font-size="14.00">No</text>
</g>
<!-- retention work details&#45;&gt;petition pitch -->
<g id="edge18" class="edge">
<title>retention work details&#45;&gt;petition pitch</title>
<path fill="none" stroke="black" d="M411.5,-368.8C411.5,-357.16 411.5,-341.55 411.5,-328.24"/>
<polygon fill="black" stroke="black" points="415,-328.18 411.5,-318.18 408,-328.18 415,-328.18"/>
<text text-anchor="middle" x="439" y="-339.8" font-family="Helvetica,sans-Serif" font-size="14.00">Continue</text>
</g>
<!-- message to active members -->
<g id="node14" class="node">
<title>message to active members</title>
<g id="a_node14"><a xlink:title="PROMPT: &lt;p&gt;Thanks for taking a minute to talk. We&#39;re getting in touch with all active members during the pandemic to make sure&#10;you&#39;re aware of of the union&#39;s efforts to ensure that our jobs will not be eliminated.&lt;/p&gt;&#10;&lt;p&gt;Have you heard about the work the union is doing?&lt;/p&gt;">
<polygon fill="#e5e5e5" stroke="black" points="229.5,-492 41.5,-492 41.5,-456 229.5,-456 229.5,-492"/>
<text text-anchor="middle" x="135.5" y="-470.3" font-family="Helvetica,sans-Serif" font-size="14.00">message to active members</text>
</a>
</g>
</g>
<!-- message to active members&#45;&gt;petition pitch -->
<g id="edge10" class="edge">
<title>message to active members&#45;&gt;petition pitch</title>
<path fill="none" stroke="black" d="M154.54,-455.83C186.49,-427.72 253.76,-371.47 318.5,-336 330.19,-329.59 343.31,-323.86 355.91,-318.99"/>
<polygon fill="black" stroke="black" points="357.28,-322.21 365.42,-315.43 354.83,-315.65 357.28,-322.21"/>
<text text-anchor="middle" x="274" y="-383.3" font-family="Helvetica,sans-Serif" font-size="14.00">Yes</text>
</g>
<!-- message to active members&#45;&gt;retention work details -->
<g id="edge11" class="edge">
<title>message to active members&#45;&gt;retention work details</title>
<path fill="none" stroke="black" d="M191.02,-455.9C235.84,-442.1 299,-422.65 346.24,-408.1"/>
<polygon fill="black" stroke="black" points="347.54,-411.36 356.07,-405.07 345.48,-404.67 347.54,-411.36"/>
<text text-anchor="middle" x="300" y="-426.8" font-family="Helvetica,sans-Serif" font-size="14.00">No</text>
</g>
<!-- heard about retention work? -->
<g id="node15" class="node">
<title>heard about retention work?</title>
<g id="a_node15"><a xlink:title="PROMPT: &lt;p&gt;OK. Have you heard about the work the union is doing to preserve our jobs during the pandemic?&lt;/p&gt;">
<polygon fill="#e5e5e5" stroke="black" points="433,-492 248,-492 248,-456 433,-456 433,-492"/>
<text text-anchor="middle" x="340.5" y="-470.3" font-family="Helvetica,sans-Serif" font-size="14.00">heard about retention work?</text>
</a>
</g>
</g>
<!-- heard about retention work?&#45;&gt;petition pitch -->
<g id="edge14" class="edge">
<title>heard about retention work?&#45;&gt;petition pitch</title>
<path fill="none" stroke="black" d="M326.9,-455.64C311.99,-434.32 292.09,-397.49 307.5,-369 318.45,-348.76 338.33,-333.58 357.8,-322.76"/>
<polygon fill="black" stroke="black" points="359.45,-325.84 366.68,-318.09 356.2,-319.65 359.45,-325.84"/>
<text text-anchor="middle" x="319" y="-383.3" font-family="Helvetica,sans-Serif" font-size="14.00">Yes</text>
</g>
<!-- heard about retention work?&#45;&gt;retention work details -->
<g id="edge15" class="edge">
<title>heard about retention work?&#45;&gt;retention work details</title>
<path fill="none" stroke="black" d="M354.87,-455.8C365.17,-443.47 379.19,-426.68 390.71,-412.89"/>
<polygon fill="black" stroke="black" points="393.43,-415.09 397.15,-405.18 388.06,-410.61 393.43,-415.09"/>
<text text-anchor="middle" x="390" y="-426.8" font-family="Helvetica,sans-Serif" font-size="14.00">No</text>
</g>
<!-- message to contingent members -->
<g id="node16" class="node">
<title>message to contingent members</title>
<g id="a_node16"><a xlink:title="PROMPT: &lt;p&gt;Thanks for taking a minute to talk. We&#39;re getting in touch with union members during the pandemic to make sure that you&#39;re aware&#10;of of the union&#39;s efforts to ensure that our jobs will not be eliminated.&lt;/p&gt;&#10;&lt;p&gt;Before we get to the details, can I ask if you&#39;ve seen your hours reduced during the pandemic?&lt;/p&gt;">
<polygon fill="#e5e5e5" stroke="black" points="483,-579 268,-579 268,-543 483,-543 483,-579"/>
<text text-anchor="middle" x="375.5" y="-557.3" font-family="Helvetica,sans-Serif" font-size="14.00">message to contingent members</text>
</a>
</g>
</g>
<!-- message to contingent members&#45;&gt;heard about retention work? -->
<g id="edge12" class="edge">
<title>message to contingent members&#45;&gt;heard about retention work?</title>
<path fill="none" stroke="black" d="M349.1,-542.65C343.6,-537.66 338.55,-531.72 335.5,-525 332.33,-518.01 331.93,-509.92 332.77,-502.31"/>
<polygon fill="black" stroke="black" points="336.23,-502.83 334.54,-492.37 329.34,-501.6 336.23,-502.83"/>
<text text-anchor="middle" x="347" y="-513.8" font-family="Helvetica,sans-Serif" font-size="14.00">Yes</text>
</g>
<!-- message to contingent members&#45;&gt;heard about retention work? -->
<g id="edge13" class="edge">
<title>message to contingent members&#45;&gt;heard about retention work?</title>
<path fill="none" stroke="black" d="M370.29,-542.64C367.2,-532.91 363.01,-520.63 358.5,-510 357.28,-507.14 355.93,-504.18 354.53,-501.27"/>
<polygon fill="black" stroke="black" points="357.6,-499.58 349.99,-492.21 351.34,-502.71 357.6,-499.58"/>
<text text-anchor="middle" x="374" y="-513.8" font-family="Helvetica,sans-Serif" font-size="14.00">No</text>
</g>
<!-- branch on status&#45;&gt;message to retirees -->
<g id="edge2" class="edge">
<title>branch on status&#45;&gt;message to retirees</title>
<path fill="none" stroke="black" d="M436.83,-656.84C442.4,-650.06 449.53,-641.17 455.5,-633 472.53,-609.72 479.59,-605.27 491.5,-579 502.79,-554.09 510.32,-523.69 514.7,-502.2"/>
<polygon fill="black" stroke="black" points="518.18,-502.63 516.65,-492.15 511.31,-501.3 518.18,-502.63"/>
<text text-anchor="middle" x="522" y="-557.3" font-family="Helvetica,sans-Serif" font-size="14.00">ELSE</text>
</g>
<!-- branch on status&#45;&gt;message to active members -->
<g id="edge3" class="edge">
<title>branch on status&#45;&gt;message to active members</title>
<g id="a_edge3"><a xlink:title="{{#or (eq person.custom_fields.[status text] &quot;Active&quot;) (eq person.custom_fields.[status text] &quot;On Leave&quot;) }}true{{/or}}">
<path fill="none" stroke="black" d="M411.66,-661.44C363.31,-641.42 220.69,-582.21 216.5,-579 188.44,-557.49 164.75,-524.06 150.37,-500.94"/>
<polygon fill="black" stroke="black" points="153.33,-499.06 145.15,-492.33 147.34,-502.69 153.33,-499.06"/>
</a>
</g>
<g id="a_edge3&#45;label"><a xlink:title="{{#or (eq person.custom_fields.[status text] &quot;Active&quot;) (eq person.custom_fields.[status text] &quot;On Leave&quot;) }}true{{/or}}">
<text text-anchor="middle" x="237.5" y="-557.3" font-family="Helvetica,sans-Serif" font-size="14.00">WHEN</text>
</a>
</g>
</g>
<!-- branch on status&#45;&gt;message to contingent members -->
<g id="edge4" class="edge">
<title>branch on status&#45;&gt;message to contingent members</title>
<g id="a_edge4"><a xlink:title="{{#eq person.custom_fields.[status text] &quot;Contingent&quot; }}true{{/eq}}">
<path fill="none" stroke="black" d="M421.12,-655C413.03,-638.51 398.88,-609.66 388.48,-588.46"/>
<polygon fill="black" stroke="black" points="391.55,-586.76 384,-579.33 385.26,-589.85 391.55,-586.76"/>
</a>
</g>
<g id="a_edge4&#45;label"><a xlink:title="{{#eq person.custom_fields.[status text] &quot;Contingent&quot; }}true{{/eq}}">
<text text-anchor="middle" x="430.5" y="-611.3" font-family="Helvetica,sans-Serif" font-size="14.00">WHEN</text>
</a>
</g>
</g>
</g>
</svg>
